<svg xmlns="http://www.w3.org/2000/svg" viewBox="0 0 573.82 71.9"><defs><style>.cls-1{fill:#ffc547;}.cls-2{font-size:60.17px;fill:#fcfcfc;font-family:Montserrat-Black, Montserrat;font-weight:800;}.cls-3{letter-spacing:0.01em;}.cls-4{letter-spacing:0em;}.cls-5{letter-spacing:-0.02em;}.cls-6{letter-spacing:0.01em;}</style></defs><g id="Layer_2" data-name="Layer 2"><g id="Layer_2-2" data-name="Layer 2"><path class="cls-1" d="M278.29,50.13l-.15-.06.12-.14.91-.92,1.3-1.3,3.13-3.12c.71-.72,1.43-1.42,2.14-2.13l3.13-3.15,1.89-1.9.14-.09a1.56,1.56,0,0,0-.13-.13l-1.26-1.28c-.15-.14-.15-.14,0-.3a3.92,3.92,0,0,0,.9-1.49,2.47,2.47,0,0,0-.49-2.43,13.07,13.07,0,0,0-1-1l-9.83-9.33h0c-.15-.14-.15-.14-.31,0l-.56-.56c-.1-.1-.1-.15,0-.26l.65-.66c.12-.11.25-.22.36-.34a.11.11,0,0,1,.17,0l.12.06c.06-.07.05-.11,0-.16s0-.06,0-.09.08-.05.11,0a.25.25,0,0,0,.25,0,.13.13,0,0,1,.1,0,.17.17,0,0,1,0,.12.34.34,0,0,1-.07.11l-.18.24c0,.1.09.12.15.05a2.42,2.42,0,0,0,.25-.31.19.19,0,0,0,0-.28.21.21,0,0,1,0-.3.61.61,0,0,0,.05-.12.76.76,0,0,1,.21-.37c.34-.32.67-.66,1-1l.11-.09.1.08,1,1a.36.36,0,0,1,.11.24.83.83,0,0,0,.65.73,1,1,0,0,1,.51.3c.35.37.72.72,1.08,1.08l1.56,1.57L288,23.83l3.91,3.92,3,3,1.18,1.18a.76.76,0,0,1,.09.09l.57-.57,1.75-1.75,4.35-4.36,2.79-2.79L307.18,21l1.45-1.46a.71.71,0,0,1,.36-.17.87.87,0,0,0,.68-.64.59.59,0,0,1,0-.13.81.81,0,0,1,.1-.21l1-1s.05,0,.09-.08l.25.24.91.92a.38.38,0,0,1,.13.22l.1.24a.18.18,0,0,1,0,.23c-.12.16-.12.21,0,.37s.14.17.22.25.07,0,.15-.05l-.19-.24s-.06-.08-.06-.12a.17.17,0,0,1,0-.13h.1a.22.22,0,0,0,.22,0,.09.09,0,0,1,.13,0,.2.2,0,0,1,0,.09c-.05,0-.07.08,0,.14h.06c.16-.08.17-.08.3,0,.34.33.67.67,1,1v.13l-.62.63c-.16-.13-.17-.13-.29,0l-.09.08-8.73,8.3c-.63.6-1.27,1.18-1.87,1.81a2.47,2.47,0,0,0-.57,2.78,4.1,4.1,0,0,0,.85,1.32c.12.13.12.14,0,.27l-.77.77-.62.62.08.09c.52.53,1.05,1,1.58,1.58,1.11,1.12,2.21,2.24,3.32,3.35l2.42,2.39,3.95,4c.46.45.91.91,1.37,1.37v.1h-.27s-.07-.06-.11-.05l-.29.05h-1.72a1,1,0,0,0-.46,0,1,1,0,0,1-.25,0l-.53,0a18.15,18.15,0,0,1-3.17-.63c-.44-.13-.88-.28-1.32-.43a.84.84,0,0,1-.38-.18s0,0-.06,0a1,1,0,0,1-.47-.14c-.58-.28-1.16-.56-1.74-.86-.37-.19-.75-.4-1.11-.62a27.54,27.54,0,0,1-2.53-1.73c-1.2-.9-2.33-1.88-3.43-2.89l-.15-.13-.88.79a33.26,33.26,0,0,1-6.42,4.63,18.9,18.9,0,0,1-2,.93,2.21,2.21,0,0,0-.35.16.67.67,0,0,1-.15.06l-.22.07a18.36,18.36,0,0,1-4.85,1.05,1.31,1.31,0,0,1-.28,0,1.18,1.18,0,0,0-.46,0h-1.73l-.29-.05s-.07,0-.1.05Zm3-31.85c0,.14.12.16.12.28s-.16.07-.11.21l.23-.24Zm29.68.47,0,0a.2.2,0,0,0,0-.08c-.11-.12-.11-.12,0-.24a.36.36,0,0,0,0-.09l0,0-.22.22Z"/><text class="cls-2" transform="translate(0 51.15)">smit<tspan class="cls-3" x="143.87" y="0">h</tspan><tspan class="cls-4" x="186.71" y="0">en</tspan></text><text class="cls-2" transform="translate(323.14 55.65)">ki<tspan class="cls-5" x="62.52" y="0">t</tspan><tspan x="89.3" y="0">c</tspan><tspan class="cls-6" x="126.3" y="0">h</tspan><tspan x="169.15" y="0">en</tspan></text></g></g></svg>