<svg xmlns="http://www.w3.org/2000/svg" viewBox="0 0 569.97 54.51"><defs><style>.cls-1{fill:#ffc547;}.cls-2{fill:#fcfcfc;}</style></defs><g id="Layer_2" data-name="Layer 2"><g id="Layer_2-2" data-name="Layer 2"><path class="cls-1" d="M277.33,48.39l-.16,0,.13-.15.91-.92,1.3-1.3,3.12-3.12,2.15-2.13c1-1,2.08-2.1,3.12-3.15.63-.63,1.27-1.26,1.9-1.9l.13-.09-.12-.13c-.42-.43-.84-.85-1.27-1.27-.15-.15-.15-.15,0-.3a3.91,3.91,0,0,0,.9-1.5A2.45,2.45,0,0,0,289,30c-.3-.35-.65-.67-1-1l-9.83-9.33h0c-.14-.14-.15-.14-.3,0l-.56-.56c-.1-.1-.1-.15,0-.25s.43-.45.65-.66.25-.23.36-.35.1-.07.17,0l.12.06c.06-.07,0-.11,0-.15a.73.73,0,0,1-.05-.09s.09-.06.12-.05a.28.28,0,0,0,.25,0s.08,0,.1,0a.24.24,0,0,1,0,.12.41.41,0,0,1-.07.11l-.19.24c0,.1.09.12.16.05a3.76,3.76,0,0,0,.25-.31c.08-.11.08-.17,0-.28a.21.21,0,0,1,0-.3.43.43,0,0,0,.05-.12.58.58,0,0,1,.21-.36l1-1,.1-.09.11.08,1,1a.36.36,0,0,1,.11.24.82.82,0,0,0,.64.73,1.05,1.05,0,0,1,.52.3c.35.37.71.72,1.07,1.08l1.57,1.58c.52.51,1,1,1.55,1.54Q289,24,290.91,26l3,3,1.19,1.18a.38.38,0,0,0,.09.09l.57-.57L297.5,28l4.36-4.37,2.79-2.79c.52-.52,1-1,1.57-1.57l1.45-1.46a.71.71,0,0,1,.36-.17.83.83,0,0,0,.67-.64s0-.09,0-.13a.46.46,0,0,1,.09-.2l1-1,.1-.07.25.23.91.92a.45.45,0,0,1,.13.22,1.86,1.86,0,0,0,.1.25.18.18,0,0,1,0,.22c-.13.16-.12.21,0,.37s.14.17.22.25.07.06.15-.05l-.19-.24a.24.24,0,0,1-.06-.11.15.15,0,0,1,0-.13s.08,0,.1,0a.24.24,0,0,0,.22,0c.05,0,.11,0,.12.05s0,.07-.05.09-.07.08,0,.14h.06c.16-.08.16-.08.3.05l1,1V19l-.62.63c-.15-.12-.16-.12-.29,0l-.08.08L303.45,28c-.63.6-1.27,1.19-1.88,1.81a2.48,2.48,0,0,0-.56,2.79,3.87,3.87,0,0,0,.84,1.31c.13.14.13.14,0,.27l-.78.77-.61.62.08.09c.52.53,1,1.06,1.58,1.58q1.65,1.68,3.32,3.35c.8.8,1.61,1.59,2.41,2.4l4,4c.46.45.91.91,1.36,1.37v.1h-.26s-.08-.06-.11,0l-.29,0h-1.73a1.15,1.15,0,0,0-.45,0,.7.7,0,0,1-.25,0l-.53,0a18.13,18.13,0,0,1-3.17-.62c-.44-.13-.88-.29-1.32-.43a1,1,0,0,1-.39-.19.05.05,0,0,0-.05,0,1.08,1.08,0,0,1-.47-.15c-.58-.28-1.16-.56-1.74-.86-.38-.19-.75-.4-1.11-.62a29.13,29.13,0,0,1-2.54-1.73c-1.19-.9-2.32-1.88-3.43-2.88a.86.86,0,0,0-.14-.13l-.88.78a33.26,33.26,0,0,1-6.42,4.63,18.15,18.15,0,0,1-2,.93,2.11,2.11,0,0,0-.34.16.67.67,0,0,1-.15.06l-.23.07a18.21,18.21,0,0,1-4.84,1,.87.87,0,0,1-.28,0,1.18,1.18,0,0,0-.46,0h-1.73l-.29,0s-.07,0-.11,0Zm3-31.85c0,.14.12.16.12.29s-.15.06-.1.2l.23-.24ZM310,17l0,0s0-.06,0-.08-.11-.12,0-.24,0-.06,0-.09l0,0-.22.23Z"/><path class="cls-2" d="M0,46.76l3.73-9a23.77,23.77,0,0,0,11.5,3c3.31,0,4.21-.6,4.21-1.56,0-3.37-19,1.14-19-12,0-6.2,5.78-11.25,16.85-11.25,4.82,0,9.93.9,13.42,2.71l-3.73,9a19.55,19.55,0,0,0-9.51-2.4c-3.49,0-4.45.78-4.45,1.56,0,3.43,18.9-1,18.9,12.16,0,5.95-5.6,11.13-17,11.13C9.27,50,3.37,48.69,0,46.76Z"/><path class="cls-2" d="M92.73,30.63V49.41H79.13V33c0-4.09-1.5-5.66-3.67-5.66-2.41,0-4.27,1.63-4.27,6V49.41H57.59V33c0-4.09-1.39-5.66-3.67-5.66s-4.28,1.63-4.28,6V49.41H36V16.49H49v3.07a12.84,12.84,0,0,1,9.33-3.67c4.27,0,8,1.56,10.29,5a13.94,13.94,0,0,1,11-5C87.08,15.89,92.73,20.28,92.73,30.63Z"/><path class="cls-2" d="M97.24,6.92C97.24,3,100.43,0,105.42,0s8.19,2.77,8.19,6.68c0,4.15-3.19,7.16-8.19,7.16S97.24,10.83,97.24,6.92Zm1.38,9.57h13.6V49.41H98.62Z"/><path class="cls-2" d="M142.49,48.26A17.45,17.45,0,0,1,134.13,50c-9.09,0-14.39-4.27-14.39-13.36V28.22h-4.51V18.29h4.51V9.09h13.6v9.2h6.74v9.93h-6.74v8.31c0,2,1.21,3.19,2.83,3.19a5.54,5.54,0,0,0,3.07-.9Z"/><path class="cls-2" d="M182.27,30.63V49.41h-13.6V33c0-4.09-1.57-5.66-4-5.66-2.76,0-5.11,1.75-5.11,6.62V49.41h-13.6V4.75h13.6V19.14a13.93,13.93,0,0,1,9.27-3.25C176.37,15.89,182.27,20.28,182.27,30.63Z"/><path class="cls-2" d="M223.61,36.11H200.74c1,2.53,3.25,3.85,6.62,3.85a10,10,0,0,0,6.86-2.41l7.1,7.16c-3.19,3.49-7.82,5.3-14.38,5.3C194.84,50,187,42.73,187,32.92c0-10,8-17,18.65-17,9.75,0,18.12,5.9,18.12,17C223.79,33.88,223.67,35.15,223.61,36.11ZM200.5,29.55h10.59a5.39,5.39,0,0,0-10.59,0Z"/><path class="cls-2" d="M264.4,30.63V49.41H250.8V33c0-4.09-1.56-5.66-4-5.66-2.77,0-5.11,1.75-5.11,6.62V49.41H228.05V16.49H241v3.25a13.71,13.71,0,0,1,9.93-3.85C258.51,15.89,264.4,20.28,264.4,30.63Z"/><path class="cls-2" d="M341,43.8l-2.17,2.35v7.76h-13.6V9.26h13.6v21.3L348.23,21H364.3L350.7,35.25l14.68,18.66H349Z"/><path class="cls-2" d="M366.7,11.42c0-3.91,3.19-6.92,8.19-6.92s8.18,2.77,8.18,6.68c0,4.15-3.19,7.16-8.18,7.16S366.7,15.33,366.7,11.42ZM368.09,21h13.6V53.91h-13.6Z"/><path class="cls-2" d="M412,52.77a17.64,17.64,0,0,1-8.37,1.74c-9.09,0-14.38-4.27-14.38-13.36V32.73h-4.52V22.8h4.52V13.59h13.6V22.8h6.74v9.93h-6.74V41c0,2,1.2,3.19,2.83,3.19a5.59,5.59,0,0,0,3.07-.9Z"/><path class="cls-2" d="M412.73,37.42c0-10,8.07-17,19.44-17,8,0,14,3.67,16.19,9.75l-10.53,5.17c-1.39-3.06-3.37-4.33-5.72-4.33-3.07,0-5.6,2.17-5.6,6.44s2.53,6.5,5.6,6.5c2.35,0,4.33-1.26,5.72-4.33l10.53,5.17c-2.17,6.08-8.18,9.75-16.19,9.75C420.8,54.51,412.73,47.47,412.73,37.42Z"/><path class="cls-2" d="M487.83,35.13V53.91h-13.6V37.48c0-4.09-1.56-5.66-4-5.66-2.77,0-5.12,1.75-5.12,6.62V53.91h-13.6V9.26h13.6V23.64a13.93,13.93,0,0,1,9.27-3.25C481.94,20.39,487.83,24.78,487.83,35.13Z"/><path class="cls-2" d="M529.17,40.61H506.3c1,2.53,3.25,3.85,6.62,3.85a10.06,10.06,0,0,0,6.87-2.41l7.1,7.17c-3.19,3.49-7.83,5.29-14.39,5.29-12.09,0-19.92-7.28-19.92-17.09,0-10,8-17,18.66-17,9.75,0,18.11,5.9,18.11,17C529.35,38.38,529.23,39.65,529.17,40.61Zm-23.11-6.56h10.6a5.39,5.39,0,0,0-10.6,0Z"/><path class="cls-2" d="M570,35.13V53.91h-13.6V37.48c0-4.09-1.57-5.66-4-5.66-2.77,0-5.12,1.75-5.12,6.62V53.91h-13.6V21h12.94v3.25a13.71,13.71,0,0,1,9.93-3.85C564.07,20.39,570,24.78,570,35.13Z"/></g></g></svg>