<svg xmlns="http://www.w3.org/2000/svg" viewBox="0 0 382.53 435.57"><g id="Layer_2" data-name="Layer 2"><g id="Layer_1-2" data-name="Layer 1"><path d="M201.2,0h71.09c.94,30,11.52,55.85,32.84,76.92s47.33,31.37,77.4,32V179.6c-40.58-.17-76.92-12.64-110-37.32V147c.12,50.5-.08,101,.45,151.48.74,70-51.44,125-114.65,135.35C89.32,445.1,20.38,400.61,3.93,333c-17.48-71.8,24.89-143,96.79-162.65a138.23,138.23,0,0,1,52-3.75c1.34.15,2.66.49,4.1.76v71.76c-4.06-.79-7.93-1.74-11.86-2.29-33.89-4.76-66.52,19.19-71.91,52.73-5.66,35.17,17.37,68.15,51.84,74.22,40.23,7.09,76.2-22.91,76.23-63.76q.11-146.24.06-292.47Z"/></g></g></svg>